Coordinates
version=1
nRows=13
nColumns=22
inDegrees=yes

Units are S.I. units (second, meters, Newtons, ...)
If the header above contains a line with 'inDegrees', this indicates whether rotational values are in degrees (yes) or radians (no).

endheader
time	pelvis_tilt	pelvis_list	pelvis_rotation	pelvis_tx	pelvis_ty	pelvis_tz	hip_flexion_r	hip_adduction_r	hip_rotation_r	knee_angle_r	ankle_angle_r	subtalar_angle_r	hip_flexion_l	hip_adduction_l	hip_rotation_l	knee_angle_l	ankle_angle_l	subtalar_angle_l	lumbar_extension	lumbar_bending	lumbar_rotation
      3.07000000	     15.88385362	     -7.15251850	    102.65824038	      0.25468374	      0.89365412	     -0.30781176	     14.38866834	    -10.71231345	     24.41985880	    -60.94468035	    -16.27910190	     -2.49866334	     17.34583864	     -0.09077832	     17.92081705	    -21.09615803	      9.05057939	     11.44436633	     -3.00645953	      4.10061303	     16.87434703
      3.08000000	     16.22353418	     -6.73021406	    105.96458938	      0.25248709	      0.89312137	     -0.30799283	     14.34918364	    -10.26030597	     24.15039255	    -60.56042674	    -15.44827889	     -1.67040434	     17.06393018	     -0.13014170	     16.92738841	    -20.24466094	      9.54208907	     12.34825025	     -2.84983005	      4.53383995	     15.88731481
      3.09000000	     16.59281108	     -6.27943101	    109.25638676	      0.25034345	      0.89224748	     -0.30793326	     14.36155861	     -9.77259358	     23.85057433	    -60.12423854	    -14.58571391	     -0.73584332	     16.72390046	     -0.23964738	     15.90648222	    -19.30731621	     10.23707085	     13.06527028	     -2.65353011	      5.00624267	     14.89830462
      3.10000000	     16.97115566	     -5.80565031	    112.53324229	      0.24824439	      0.89098745	     -0.30763232	     14.43438125	     -9.28122047	     23.52570703	    -59.64268323	    -13.69725479	      0.21901128	     16.33224510	     -0.39045430	     14.93367841	    -18.29482202	     11.11362426	     13.52448484	     -2.41288623	      5.49295199	     13.89794902
      3.11000000	     17.33917301	     -5.31835386	    115.80161018	      0.24620868	      0.88933119	     -0.30706639	     14.57611736	     -8.81512472	     23.17713820	    -59.12738597	    -12.75442843	      1.15398183	     15.91156055	     -0.55469496	     14.08085801	    -17.23623312	     12.09438578	     13.67360890	     -2.13062658	      5.96415769	     12.87494294
      3.12000000	     17.67292918	     -4.81163111	    119.06382223	      0.24425079	      0.88733272	     -0.30623184	     14.76767883	     -8.39543859	     22.81189135	    -58.57655413	    -11.75754438	      1.99357094	     15.48032742	     -0.70884906	     13.39004073	    -16.19453430	     13.14143364	     13.46420804	     -1.83225356	      6.39559304	     11.82291624
      3.13000000	     17.95095942	     -4.29227832	    122.32192618	      0.24239766	      0.88507055	     -0.30512821	     15.00193161	     -8.03684811	     22.44778857	    -57.99684968	    -10.70211665	      2.68277350	     15.06782242	     -0.83021708	     12.91003756	    -15.23075283	     14.21090790	     12.91244351	     -1.53351114	      6.76223183	     10.74021052
      3.14000000	     18.13448667	     -3.76931558	    125.56467232	      0.24071262	      0.88267278	     -0.30376945	     15.26132928	     -7.76463975	     22.12112134	    -57.39142472	     -9.55729151	      3.21299400	     14.71522947	     -0.88545240	     12.59630802	    -14.45061545	     15.23070120	     12.06028512	     -1.27522607	      7.01837222	      9.63450530
      3.15000000	     18.19734051	     -3.25652334	    128.78137036	      0.23921177	      0.88029396	     -0.30219966	     15.52542477	     -7.58563520	     21.87782157	    -56.75295295	     -8.35661496	      3.54714998	     14.44428136	     -0.85007208	     12.43597613	    -13.92087115	     16.17525958	     10.94727979	     -1.08354244	      7.14127403	      8.51134541
      3.16000000	     18.13402577	     -2.76807332	    131.95159896	      0.23796875	      0.87808152	     -0.30049832	     15.79892422	     -7.48428395	     21.75215363	    -56.09137891	     -7.13628887	      3.61690127	     14.26391104	     -0.73114606	     12.41023343	    -13.66449204	     17.04685692	      9.73645715	     -0.98107724	      7.12003330	      7.40220920
      3.17000000	     17.94115437	     -2.31379569	    135.04930775	      0.23701097	      0.87617634	     -0.29875598	     16.08224766	     -7.44805666	     21.76959516	    -55.41345332	     -5.92116040	      3.42581089	     14.17254214	     -0.54005520	     12.44236054	    -13.69508874	     17.83049906	      8.49884523	     -0.99016763	      6.95756909	      6.33564650
      3.18000000	     17.65453112	     -1.89656167	    138.05086782	      0.23636111	      0.87467289	     -0.29709166	     16.39303348	     -7.43376713	     21.93424844	    -54.71137375	     -4.71873088	      3.00391723	     14.16968167	     -0.32602750	     12.46458250	    -13.97706567	     18.51204033	      7.30597649	     -1.10032664	      6.69102636	      5.34227013
      3.19000000	     17.29493174	     -1.51742646	    140.91557824	      0.23607519	      0.87362716	     -0.29558555	     16.76387110	     -7.40925774	     22.26692415	    -54.00470757	     -3.56093148	      2.40176818	     14.23793934	     -0.12104764	     12.44762343	    -14.45908566	     19.12528863	      6.15644334	     -1.31539593	      6.34403387	      4.46696777
